<?xml version="1.0" standalone="no"?>
<!DOCTYPE svg PUBLIC "-//W3C//DTD SVG 20010904//EN"
 "http://www.w3.org/TR/2001/REC-SVG-20010904/DTD/svg10.dtd">
<svg version="1.0" xmlns="http://www.w3.org/2000/svg"
 width="512.000000pt" height="512.000000pt" viewBox="0 0 512.000000 512.000000"
 preserveAspectRatio="xMidYMid meet">
<metadata>
Created by potrace 1.14, written by Peter Selinger 2001-2017
</metadata>
<g transform="translate(0.000000,512.000000) scale(0.100000,-0.100000)"
fill="#000000" stroke="none">
<path d="M1115 5043 c17 -42 54 -195 67 -278 32 -202 -2 -338 -145 -595 -92
-166 -169 -304 -202 -365 -15 -27 -63 -113 -105 -190 -431 -777 -609 -1102
-638 -1168 -103 -239 -119 -553 -36 -723 55 -113 48 -108 684 -425 1598 -796
2492 -1239 2501 -1239 14 0 1869 1851 1864 1860 -3 4 -18 6 -35 4 -16 -2 -31
1 -31 6 -5 36 -7 52 -8 65 -3 33 -77 95 -329 272 -146 104 -284 201 -306 216
-23 16 -42 32 -44 36 -2 5 27 82 63 172 64 160 65 165 65 256 l0 93 -60 0
c-33 0 -60 3 -60 6 0 3 27 39 61 79 l60 73 -63 126 -63 127 -895 446 c-1713
853 -2338 1163 -2345 1163 -4 0 -4 -8 0 -17z m512 -688 c38 -20 70 -42 73 -50
3 -8 3 -102 0 -210 -3 -107 -3 -200 -1 -206 2 -6 19 20 39 58 42 81 123 230
138 256 10 18 19 15 126 -40 l116 -58 -205 -330 c-112 -181 -208 -336 -212
-343 -6 -11 -27 -3 -94 33 -75 40 -87 51 -88 73 0 15 -1 105 -2 199 -2 202 7
202 -112 13 -43 -69 -80 -127 -81 -129 -4 -4 -214 109 -214 116 0 3 60 96 133
207 73 110 168 256 212 323 44 68 86 123 92 123 7 0 43 -16 80 -35z m743 -375
c99 -50 182 -95 185 -100 3 -5 1 -11 -4 -14 -5 -3 -21 -29 -36 -58 -35 -68
-50 -84 -67 -71 -7 6 -40 25 -73 43 -33 18 -73 40 -88 49 -25 14 -29 14 -37 1
-5 -8 -21 -34 -35 -57 l-25 -41 42 -22 c24 -11 50 -25 58 -30 8 -5 36 -21 62
-35 l47 -26 -51 -87 c-28 -48 -52 -88 -54 -90 -1 -2 -19 7 -41 20 -21 14 -64
39 -95 57 l-57 32 -26 -40 c-14 -22 -25 -46 -25 -53 0 -7 45 -38 100 -68 l99
-55 -26 -45 c-15 -25 -37 -62 -49 -82 l-23 -36 -193 104 c-106 57 -196 108
-200 112 -9 9 408 682 423 682 6 0 91 -41 189 -90z m346 -177 c52 -25 94 -49
94 -53 0 -9 -181 -393 -193 -407 -30 -39 19 5 173 157 95 94 177 170 182 170
22 0 129 -62 125 -73 -38 -93 -162 -377 -179 -409 -20 -39 -13 -32 289 300
l42 47 86 -43 c47 -23 85 -48 85 -55 0 -7 -10 -22 -22 -33 -13 -11 -45 -45
-72 -75 -27 -30 -78 -86 -115 -124 -36 -39 -112 -120 -167 -180 -56 -61 -125
-135 -153 -165 l-51 -55 -103 54 c-56 30 -107 58 -114 63 -12 10 -8 22 45 138
11 25 27 62 36 83 9 20 23 53 31 72 19 44 10 44 -35 2 -75 -71 -234 -207 -241
-207 -5 0 -30 12 -56 28 -27 15 -65 35 -85 46 -43 21 -46 4 39 191 33 72 104
230 159 352 54 123 100 223 102 223 2 0 46 -21 98 -47z m-1350 -564 c233 -115
424 -211 424 -213 0 -2 -79 -144 -343 -617 l-82 -146 -335 167 c-184 92 -376
188 -427 213 l-92 47 48 82 c26 46 61 108 78 138 16 30 51 93 78 140 65 115
105 187 168 302 28 54 53 98 55 98 2 0 195 -95 428 -211z m2331 67 c80 -43
113 -86 114 -149 1 -36 -26 -127 -37 -127 -12 0 -107 57 -109 65 -2 6 -6 21
-9 35 -3 14 -19 33 -36 44 -51 30 -102 -2 -115 -73 -6 -32 16 -78 60 -126 79
-86 107 -167 80 -230 -20 -48 -105 -126 -169 -156 -141 -67 -312 0 -336 131
-7 41 5 138 20 153 4 5 26 -3 49 -17 22 -14 45 -26 51 -26 5 0 10 -14 10 -31
0 -25 6 -32 35 -45 19 -7 44 -14 56 -14 39 0 87 31 104 67 21 43 17 54 -55
152 -103 142 -101 225 10 330 75 71 164 76 277 17z m617 -72 l29 -35 -56 -112
c-81 -166 -81 -156 2 -154 39 0 73 -1 76 -4 15 -15 4 -69 -44 -214 -29 -88
-60 -173 -68 -190 -15 -28 -15 -30 18 -57 l33 -28 -46 -90 -47 -90 32 -17 c18
-9 134 -68 260 -130 195 -97 226 -116 219 -131 -54 -110 -66 -132 -70 -132 -2
0 -117 56 -255 125 -138 69 -256 124 -262 121 -13 -4 -102 -173 -95 -178 3 -2
82 -41 175 -87 94 -46 171 -85 173 -86 1 -1 -15 -36 -36 -78 l-37 -75 -177 88
c-126 62 -180 84 -187 76 -5 -6 -27 -48 -50 -93 l-40 -81 94 -47 94 -47 -37
-74 c-20 -41 -39 -74 -42 -74 -4 0 -46 20 -95 45 -49 25 -92 42 -96 38 -9 -10
-109 -199 -109 -207 0 -3 27 -19 60 -36 33 -17 60 -32 60 -35 0 -8 -72 -145
-77 -145 -2 0 -31 14 -64 31 -34 17 -62 29 -63 27 -2 -2 -43 -79 -91 -173 -49
-93 -105 -202 -125 -242 -36 -67 -56 -153 -37 -153 5 0 333 323 729 718 396
394 744 741 773 771 l54 53 31 -30 c25 -26 30 -38 30 -80 l0 -49 -861 -857
-860 -856 -46 32 c-71 51 -141 128 -170 186 -24 50 -26 60 -20 150 4 61 19
148 41 235 l36 138 572 1137 c315 625 583 1160 596 1189 14 28 30 49 36 46 6
-2 24 -20 40 -39z m-1767 -572 c296 -148 600 -299 676 -337 75 -37 137 -72
137 -77 0 -4 -16 -40 -35 -78 l-35 -69 -637 318 c-351 175 -657 326 -680 337
-23 10 -43 22 -43 27 0 10 69 147 75 147 2 0 246 -121 542 -268z m-35 -408
c370 -185 675 -338 677 -340 2 -2 -13 -38 -33 -78 l-38 -75 -677 337 c-372
185 -678 338 -681 340 -5 3 68 152 75 152 2 0 307 -151 677 -336z m-853 -425
c652 -325 1188 -592 1190 -595 2 -2 -13 -37 -34 -78 l-39 -74 -575 288 c-317
158 -854 425 -1194 594 -340 169 -617 311 -615 315 15 34 72 141 76 141 3 0
539 -266 1191 -591z m588 133 c318 -159 622 -310 676 -337 53 -26 97 -51 97
-54 1 -16 -66 -140 -76 -141 -7 0 -272 130 -590 288 -319 159 -620 308 -671
333 -51 24 -92 49 -92 55 -1 10 9 30 60 127 6 9 11 17 14 17 2 0 264 -130 582
-288z m-110 -838 l633 -314 -37 -72 c-19 -40 -37 -75 -39 -77 -3 -3 -2373
1175 -2383 1185 -3 3 12 38 32 79 l37 75 562 -281 c310 -155 848 -423 1195
-595z"/>
</g>
</svg>
